<svg xmlns="http://www.w3.org/2000/svg" viewBox="0 0 64 64" role="img" aria-label="Good Growth">
  <rect width="64" height="64" rx="32" fill="#344b32"/>
  <path fill="#f7f2e8" d="M32 13c6.8 5.8 12 13.3 12 21a12 12 0 0 1-24 0c0-7.7 5.2-15.2 12-21Zm0 8.2c-4 4.3-7 8.8-7 12.8a7 7 0 0 0 14 0c0-4-3-8.5-7-12.8Z"/>
  <path fill="#8a9b6a" d="M13 39c7.4.4 13.2 3.1 16.3 7.7 1.2 1.8 1.9 3.6 2.2 5.3-7.2-.3-13.2-3.1-16.3-7.7A13.5 13.5 0 0 1 13 39Zm38 0a13.5 13.5 0 0 1-2.2 5.3C45.7 48.9 39.7 51.7 32.5 52c.3-1.7 1-3.5 2.2-5.3C37.8 42.1 43.6 39.4 51 39Z"/>
</svg>
